<svg width="360" height="800" viewBox="0 0 360 800" fill="none" xmlns="http://www.w3.org/2000/svg">
<g clip-path="url(#clip0_8_28)">
<rect width="360" height="800" fill="black"/>
<g clip-path="url(#clip1_8_28)">
<path d="M360 0H0V800H360V0Z" fill="#ED1B24"/>
<path d="M248.55 369.09H259.08V419.02H268.01V431.61H248.55V369.09Z" fill="white"/>
<path d="M268.93 372.41C268.93 374.62 267.14 376.42 264.92 376.42C262.7 376.42 260.91 374.63 260.91 372.41C260.91 370.19 262.7 368.4 264.92 368.4C267.14 368.4 268.93 370.19 268.93 372.41V372.41Z" stroke="white" stroke-width="1.67"/>
<path d="M263.36 374.48V370.27H265.22C265.59 370.27 265.88 370.31 266.08 370.38C266.27 370.46 266.43 370.59 266.55 370.78C266.67 370.97 266.73 371.18 266.73 371.41C266.73 371.71 266.63 371.96 266.44 372.16C266.25 372.37 265.95 372.49 265.55 372.55C265.7 372.62 265.81 372.69 265.89 372.76C266.05 372.91 266.21 373.1 266.35 373.32L267.08 374.46H266.38L265.83 373.59C265.67 373.34 265.53 373.14 265.43 373.01C265.33 372.88 265.23 372.78 265.15 372.73C265.07 372.68 264.98 372.64 264.9 372.62C264.84 372.61 264.73 372.6 264.59 372.6H263.95V374.47H263.39L263.36 374.48ZM263.92 372.13H265.12C265.37 372.13 265.57 372.1 265.72 372.05C265.86 372 265.97 371.91 266.05 371.8C266.12 371.68 266.16 371.56 266.16 371.42C266.16 371.22 266.09 371.06 265.94 370.93C265.8 370.8 265.57 370.74 265.26 370.74H263.93V372.13H263.92Z" fill="white"/>
<path d="M93.7402 431.38V369.09H107.94L112.98 395.2L118.7 369.09H132.44V425.2L141.37 369.09H155.34L164.04 425.2V369.32H182.59C182.59 369.32 189 370.46 192.21 379.4L190.84 369.09H202.06L207.33 401.38L212.83 369.32H244.43V381H235.04V393.82H243.97V406.87H235.27V418.78H244.43V431.38H224.05V371.38L213.51 431.38H200.92L194.28 391.53C194.28 391.53 193.14 402.52 186.95 407.56L194.97 431.38H183.98L176.19 410.54V431.38H153.98L152.84 425.43H144.37L142.54 431.38H121.47V408.48L115.97 431.38H110.25L105.21 408.71V431.15L93.7602 431.38H93.7402ZM151.68 413.29L148.47 394.28L145.72 413.29H151.67H151.68ZM175.95 398.86C183.51 398.4 182.82 389.01 182.82 389.01C181.68 379.85 175.95 380.31 175.95 380.31V398.86Z" fill="white"/>
</g>
</g>
<defs>
<clipPath id="clip0_8_28">
<rect width="360" height="800" fill="white"/>
</clipPath>
<clipPath id="clip1_8_28">
<rect width="360" height="800" fill="white"/>
</clipPath>
</defs>
</svg>
